<svg width="166" height="50" viewBox="0 0 166 50" fill="none" xmlns="http://www.w3.org/2000/svg">
<g clip-path="url(#clip0_13_194)">
<path fill-rule="evenodd" clip-rule="evenodd" d="M102.983 39.1015C93.3366 46.2083 79.3546 50 67.3163 50C50.4366 50 35.2406 43.7599 23.7442 33.3815C22.841 32.5654 23.6503 31.4531 24.7342 32.0887C37.141 39.3038 52.4815 43.6444 68.3279 43.6444C79.0149 43.6444 90.7714 41.4344 101.581 36.8482C103.214 36.1548 104.58 37.9171 102.983 39.1015Z" fill="white"/>
<path fill-rule="evenodd" clip-rule="evenodd" d="M106.994 34.5154C105.765 32.9409 98.8427 33.7715 95.7356 34.1398C94.789 34.2554 94.6445 33.4321 95.4971 32.8398C101.01 28.9614 110.057 30.0809 111.112 31.3809C112.167 32.6882 110.838 41.7521 105.657 46.0783C104.862 46.7427 104.103 46.3889 104.457 45.5077C105.621 42.6044 108.229 36.0971 106.994 34.5154Z" fill="white"/>
<path fill-rule="evenodd" clip-rule="evenodd" d="M95.9524 5.46009V1.69005C95.9524 1.11949 96.3859 0.73671 96.9062 0.73671H113.793C114.335 0.73671 114.769 1.12671 114.769 1.69005V4.91842C114.761 5.46009 114.306 6.16788 113.497 7.28733L104.746 19.7747C107.998 19.6952 111.43 20.1791 114.378 21.8403C115.043 22.2158 115.224 22.7647 115.274 23.3064V27.3292C115.274 27.8781 114.667 28.5209 114.032 28.1887C108.836 25.4659 101.935 25.1697 96.1908 28.2176C95.6055 28.5353 94.9913 27.8998 94.9913 27.3509V23.5303C94.9913 22.9164 94.9986 21.8692 95.6127 20.9375L105.751 6.40621H96.9279C96.3859 6.40621 95.9524 6.02343 95.9524 5.46009Z" fill="white"/>
<path fill-rule="evenodd" clip-rule="evenodd" d="M34.3518 28.9831H29.2142C28.7228 28.947 28.3326 28.5787 28.2965 28.1092V1.75506C28.2965 1.22783 28.7373 0.808934 29.2865 0.808934H34.0772C34.5758 0.830586 34.9732 1.21338 35.0093 1.69005V5.13509H35.1033C36.3534 1.80561 38.7018 0.252815 41.8667 0.252815C45.0822 0.252815 47.091 1.80561 48.5362 5.13509C49.779 1.80561 52.6043 0.252815 55.632 0.252815C57.7853 0.252815 60.1409 1.14116 61.5789 3.13451C63.2047 5.35176 62.8723 8.5729 62.8723 11.3968L62.8651 28.0298C62.8651 28.557 62.4243 28.9831 61.8752 28.9831H56.7448C56.2317 28.947 55.8199 28.5353 55.8199 28.0298V14.0618C55.8199 12.9496 55.921 10.1763 55.6754 9.1218C55.2924 7.35234 54.1435 6.85399 52.6549 6.85399C51.4121 6.85399 50.1114 7.68456 49.5839 9.01346C49.0564 10.3424 49.107 12.5668 49.107 14.0618V28.0298C49.107 28.557 48.6663 28.9831 48.1171 28.9831H42.9867C42.4665 28.947 42.0618 28.5353 42.0618 28.0298L42.0546 14.0618C42.0546 11.1224 42.5387 6.79622 38.8896 6.79622C35.1972 6.79622 35.3417 11.014 35.3417 14.0618V28.0298C35.3417 28.557 34.901 28.9831 34.3518 28.9831Z" fill="white"/>
<path fill-rule="evenodd" clip-rule="evenodd" d="M129.307 0.252815C136.93 0.252815 141.056 6.79622 141.056 15.1163C141.056 23.1547 136.497 29.532 129.307 29.532C121.821 29.532 117.746 22.9886 117.746 14.8346C117.746 6.6301 121.872 0.252815 129.307 0.252815ZM129.35 5.63343C125.564 5.63343 125.326 10.7901 125.326 14.0041C125.326 17.2252 125.275 24.1008 129.307 24.1008C133.288 24.1008 133.476 18.5541 133.476 15.1741C133.476 12.9496 133.382 10.2918 132.71 8.1829C132.132 6.34844 130.983 5.63343 129.35 5.63343Z" fill="white"/>
<path fill-rule="evenodd" clip-rule="evenodd" d="M150.941 28.9831H145.825C145.312 28.947 144.9 28.5353 144.9 28.0298L144.893 1.66839C144.937 1.18449 145.363 0.808934 145.883 0.808934H150.645C151.093 0.830586 151.462 1.13394 151.563 1.54561V5.57565H151.657C153.095 1.97172 155.111 0.252815 158.659 0.252815C160.964 0.252815 163.211 1.08338 164.656 3.3584C166 5.46731 166 9.01346 166 11.5629V28.1526C165.942 28.6148 165.516 28.9831 165.01 28.9831H159.858C159.388 28.947 158.998 28.6003 158.948 28.1526V13.838C158.948 10.9563 159.28 6.73844 155.732 6.73844C154.482 6.73844 153.333 7.57623 152.762 8.84735C152.04 10.4579 151.946 12.0613 151.946 13.838V28.0298C151.938 28.557 151.49 28.9831 150.941 28.9831Z" fill="white"/>
<path fill-rule="evenodd" clip-rule="evenodd" d="M82.4906 16.3946C82.4906 18.3952 82.5411 20.0636 81.5295 21.8403C80.713 23.2847 79.4123 24.1731 77.9744 24.1731C76.0017 24.1731 74.8456 22.6708 74.8456 20.4536C74.8456 16.0769 78.7692 15.2824 82.4906 15.2824V16.3946ZM87.6715 28.9109C87.3319 29.2142 86.8405 29.2359 86.4576 29.0337C84.7523 27.6181 84.4415 26.9609 83.5094 25.6103C80.6913 28.4848 78.6897 29.3442 75.0407 29.3442C70.7124 29.3442 67.3524 26.6792 67.3524 21.3419C67.3524 17.1747 69.6068 14.3363 72.8296 12.9496C75.6188 11.7218 79.5135 11.5052 82.4906 11.1657V10.5013C82.4906 9.28068 82.5845 7.83623 81.8619 6.78177C81.2405 5.83565 80.041 5.44565 78.9788 5.44565C77.0206 5.44565 75.2791 6.44955 74.8528 8.52957C74.7661 8.9918 74.4265 9.4468 73.9568 9.46847L68.9782 8.93401C68.5591 8.84013 68.0894 8.50068 68.2122 7.8579C69.3539 1.82006 74.8167 3.43323e-05 79.7014 3.43323e-05C82.2015 3.43323e-05 85.4676 0.664487 87.4403 2.55673C89.9404 4.88953 89.702 8.00234 89.702 11.3896V19.3919C89.702 21.7969 90.6992 22.8514 91.6385 24.1514C91.9637 24.6136 92.0359 25.1697 91.6168 25.5164C90.5691 26.3903 88.7048 28.0153 87.6787 28.9253L87.6715 28.9109Z" fill="white"/>
<path fill-rule="evenodd" clip-rule="evenodd" d="M15.1382 16.3946C15.1382 18.3952 15.1888 20.0635 14.1772 21.8402C13.3606 23.2847 12.0672 24.173 10.622 24.173C8.64937 24.173 7.50046 22.6708 7.50046 20.4535C7.50046 16.0768 11.4241 15.2824 15.1382 15.2824V16.3946ZM20.3192 28.9109C19.9795 29.2142 19.4882 29.2359 19.1052 29.0336C17.3999 27.6181 17.0964 26.9608 16.157 25.6103C13.339 28.4847 11.3446 29.3442 7.68833 29.3442C3.36725 29.3442 0 26.6792 0 21.3419C0 17.1746 2.2617 14.3363 5.47721 12.9496C8.2664 11.7218 12.1611 11.5051 15.1382 11.1657V10.5012C15.1382 9.28065 15.2321 7.83619 14.5168 6.78174C13.8881 5.83562 12.6886 5.44561 11.6337 5.44561C9.67545 5.44561 7.92678 6.44951 7.50046 8.52953C7.41374 8.99176 7.07413 9.44677 6.61167 9.46843L1.62582 8.93398C1.20672 8.84009 0.744264 8.50064 0.859878 7.85786C2.00879 1.82002 7.46432 0 12.349 0C14.8492 0 18.1153 0.664453 20.0879 2.55669C22.5881 4.88949 22.3496 8.00231 22.3496 11.3896V19.3919C22.3496 21.7969 23.3468 22.8513 24.2862 24.1514C24.6185 24.6136 24.6908 25.1697 24.2717 25.5164C23.224 26.3903 21.3597 28.0153 20.3336 28.9253L20.3192 28.9109Z" fill="white"/>
</g>
<defs>
<clipPath id="clip0_13_194">
<rect width="166" height="50" fill="white"/>
</clipPath>
</defs>
</svg>
