<svg width="76" height="45" viewBox="0 0 76 45" fill="none" xmlns="http://www.w3.org/2000/svg">
<g clip-path="url(#clip0_13_203)">
<path d="M60.8538 32.6613H76V45H60.7642L57 41.371V36.2903L60.8538 32.6613Z" fill="white"/>
<path d="M13.6226 9.70766L13.8915 9.61693C14.0708 9.52621 14.3396 9.34476 14.6085 9.16331C14.8774 8.98185 15.1462 8.70968 15.4151 8.4375C15.684 8.16532 15.8632 7.80242 16.1321 7.25806C16.3113 6.80443 16.4009 6.26008 16.4009 5.71572C16.4009 4.35484 15.7736 3.08468 14.5189 2.08669C13.2642 1.08871 11.5613 0.544353 9.41038 0.544353H0V19.9597H9.94811C12.4575 19.9597 17.7453 19.506 17.7453 14.4254C17.7453 10.5242 13.7123 9.70766 13.6226 9.70766ZM6.18396 5.08064H8.51415C8.96226 5.08064 9.32075 5.17137 9.67924 5.53427C9.94811 5.80645 10.1274 6.16935 10.1274 6.53226C10.1274 6.89516 9.94811 7.25806 9.67924 7.53024C9.32075 7.80242 8.96226 7.98387 8.51415 7.98387H6.18396V5.08064ZM10.4858 14.9698C10.1274 15.3327 9.67924 15.5141 9.14151 15.5141H6.18396V12.0665H9.14151C9.67924 12.0665 10.1274 12.248 10.4858 12.6109C10.8443 12.9738 11.0236 13.3367 11.0236 13.881C11.0236 14.2439 10.8443 14.6069 10.4858 14.9698Z" fill="white"/>
<path d="M18.5519 31.2097L18.8208 31.119C19 31.0282 19.2689 30.8468 19.5377 30.6653C19.8066 30.4839 20.0755 30.2117 20.3443 29.9395C20.6132 29.6673 20.7925 29.3044 21.0613 28.7601C21.2406 28.3065 21.3302 27.7621 21.3302 27.2177C21.3302 25.8569 20.7028 24.5867 19.4481 23.5887C18.1934 22.5907 16.4906 22.0464 14.3396 22.0464H4.92924V41.4617H14.7877C17.2972 41.4617 22.5849 41.0081 22.5849 35.9274C22.6745 32.0262 18.6415 31.3004 18.5519 31.2097ZM11.2028 26.5827H13.4434C13.8915 26.5827 14.25 26.7641 14.6085 27.0363C14.8774 27.3085 15.0566 27.6714 15.0566 28.0343C15.0566 28.3972 14.8774 28.7601 14.6085 29.0323C14.3396 29.3044 13.9811 29.4859 13.4434 29.4859H11.2028V26.5827ZM15.4151 36.4718C15.0566 36.8347 14.6085 37.0161 14.0708 37.0161H11.2028V33.5685H14.0708C14.6085 33.5685 15.0566 33.75 15.4151 34.1129C15.7736 34.4758 15.9528 34.8387 15.9528 35.3831C15.9528 35.746 15.7736 36.1089 15.4151 36.4718Z" fill="white"/>
<path d="M33.6085 15.2419H24.3774V12.248H31.9057V7.80242H24.3774V5.2621H33.6085V0.544353H18.1038V19.9597H33.6085V15.2419Z" fill="white"/>
<path d="M49.4717 0.544353V5.2621H54.5802V19.9597H60.7641V5.2621H65.783V0.544353H49.4717Z" fill="white"/>
<path d="M42.4811 14.9698C42.1226 15.2419 41.6745 15.4234 41.0472 15.4234C40.4198 15.4234 39.7925 15.2419 39.1651 14.879C38.5377 14.5161 38.0896 14.244 37.8208 14.0625C37.7311 13.9718 37.5519 13.881 37.4623 13.7903L33.7877 17.3286L34.0566 17.6008C34.2358 17.873 34.5943 18.1452 35.0424 18.4173C35.4906 18.7802 36.0283 19.0524 36.6557 19.4153C37.283 19.7782 38 20.0504 38.9858 20.2319C39.8821 20.504 40.8679 20.5948 41.8538 20.5948C44.2736 20.5948 46.2453 19.9597 47.6792 18.6895C49.1132 17.4194 49.8302 15.877 49.8302 14.0625C49.8302 13.0645 49.6509 12.0665 49.2028 11.3407C48.7547 10.5242 48.3066 9.97984 47.6792 9.52621C47.0519 9.16331 46.4245 8.8004 45.7075 8.4375C45.0802 8.16532 44.4528 7.89315 43.8255 7.80242C43.7358 7.80242 43.7358 7.80242 43.6462 7.80242C43.0189 7.62097 42.4811 7.43952 42.1226 7.16734C41.6745 6.89516 41.4953 6.71371 41.4953 6.35081C41.4953 5.9879 41.6745 5.71573 41.9434 5.44355C42.2123 5.17137 42.6604 5.08065 43.1981 5.08065C44.4528 5.08065 45.2594 5.625 45.6179 6.07863L49.2924 2.54032L49.2028 2.4496C49.0236 2.26815 48.7547 1.99597 48.3962 1.72379C48.0377 1.45161 47.5896 1.17944 47.0519 0.907258C46.5141 0.635081 45.8868 0.362903 44.9906 0.181452C44.0943 0.0907258 43.1981 0 42.3019 0C39.9717 0 38.1792 0.635081 36.7453 1.81452C35.3113 3.08468 34.5943 4.53629 34.5943 6.16936C34.5943 7.07661 34.7736 7.89315 35.0424 8.52823C35.3113 9.25403 35.7594 9.79839 36.2075 10.252C36.6557 10.7056 37.1934 11.0685 37.8208 11.3407C38.3585 11.6129 38.8066 11.7944 39.3443 11.9758C39.434 11.9758 39.5236 12.0665 39.6132 12.0665C40.2406 12.248 40.7783 12.4294 41.2264 12.6109C41.6745 12.7923 42.1226 12.9738 42.3915 13.1552C42.6604 13.3367 42.8396 13.6089 42.8396 13.7903C43.0189 14.3347 42.8396 14.6976 42.4811 14.9698Z" fill="white"/>
<path d="M33.6085 33.5686C33.6085 34.8387 32.6226 35.9274 31.2783 35.9274C30.0236 35.9274 28.9481 34.9294 28.9481 33.5686V22.0464H22.7641V33.2964C22.7641 37.9234 26.4387 41.7339 31.0991 41.7339H31.4575C36.0283 41.7339 39.7924 38.0141 39.7924 33.2964V22.0464H33.6085V33.5686Z" fill="white"/>
<path d="M50.3679 28.6694L46.3349 22.0464H40.1509L47.3208 34.5665V41.4617H53.5047V34.5665L60.6745 22.0464H54.4906L50.3679 28.6694Z" fill="white"/>
<path d="M60.0472 38.8306C60.0472 39.2843 59.6887 39.5565 59.3302 39.5565C58.9717 39.5565 58.6132 39.1936 58.6132 38.8306C58.6132 38.377 58.9717 38.1048 59.3302 38.1048C59.6887 38.1048 60.0472 38.377 60.0472 38.8306Z" fill="#122028"/>
<path d="M60.8538 27.6714H60.4057V27.4899H61.4811V27.6714H61.033V29.0323H60.8538V27.6714ZM61.75 27.4899H62.0189L62.467 28.6694L62.9151 27.4899H63.184V28.9415H63.0047V27.6714L62.467 28.9415H62.3774L61.8396 27.6714V28.9415H61.6604V27.4899H61.75Z" fill="white"/>
</g>
<defs>
<clipPath id="clip0_13_203">
<rect width="76" height="45" fill="white"/>
</clipPath>
</defs>
</svg>
