<svg width="35" height="35" viewBox="0 0 35 35" fill="none" xmlns="http://www.w3.org/2000/svg">
<path d="M35 17.4999C35 7.83496 27.165 -5.34058e-05 17.5 -5.34058e-05C7.83501 -5.34058e-05 0 7.83496 0 17.4999C0 26.2347 6.3995 33.4745 14.7656 34.7874V22.5585H10.3223V17.4999H14.7656V13.6445C14.7656 9.25854 17.3783 6.83588 21.3756 6.83588C23.2903 6.83588 25.293 7.17768 25.293 7.17768V11.4843H23.0863C20.9123 11.4843 20.2344 12.8333 20.2344 14.2172V17.4999H25.0879L24.312 22.5585H20.2344V34.7874C28.6005 33.4745 35 26.2347 35 17.4999Z" fill="#100F0D"/>
<path d="M24.312 22.5586L25.0879 17.5H20.2344V14.2173C20.2344 12.8333 20.9123 11.4844 23.0863 11.4844H25.293V7.17773C25.293 7.17773 23.2903 6.83594 21.3756 6.83594C17.3783 6.83594 14.7656 9.25859 14.7656 13.6445V17.5H10.3223V22.5586H14.7656V34.7874C15.6566 34.9272 16.5698 35 17.5 35C18.4302 35 19.3434 34.9272 20.2344 34.7874V22.5586H24.312Z" fill="white"/>
</svg>
