<svg width="104" height="34" viewBox="0 0 104 34" fill="none" xmlns="http://www.w3.org/2000/svg">
<path d="M36.384 24.716C34.752 24.716 33.32 24.364 32.088 23.66C30.872 22.956 29.936 21.948 29.28 20.636C28.624 19.324 28.296 17.788 28.296 16.028C28.296 14.268 28.624 12.74 29.28 11.444C29.936 10.132 30.872 9.12401 32.088 8.42001C33.32 7.71601 34.752 7.36401 36.384 7.36401C37.44 7.36401 38.432 7.52401 39.36 7.84401C40.288 8.14801 41.112 8.59601 41.832 9.18801C42.04 9.34801 42.184 9.51601 42.264 9.69201C42.344 9.86801 42.384 10.084 42.384 10.34C42.384 10.692 42.288 10.988 42.096 11.228C41.904 11.468 41.672 11.588 41.4 11.588C41.08 11.588 40.752 11.476 40.416 11.252C39.728 10.74 39.088 10.388 38.496 10.196C37.904 9.98801 37.248 9.88401 36.528 9.88401C34.864 9.88401 33.6 10.404 32.736 11.444C31.888 12.484 31.464 14.012 31.464 16.028C31.464 18.06 31.888 19.596 32.736 20.636C33.6 21.676 34.864 22.196 36.528 22.196C37.216 22.196 37.848 22.092 38.424 21.884C39.016 21.676 39.68 21.324 40.416 20.828C40.576 20.732 40.736 20.652 40.896 20.588C41.056 20.524 41.224 20.492 41.4 20.492C41.672 20.492 41.904 20.612 42.096 20.852C42.288 21.092 42.384 21.388 42.384 21.74C42.384 21.98 42.344 22.196 42.264 22.388C42.184 22.564 42.04 22.732 41.832 22.892C41.112 23.484 40.288 23.94 39.36 24.26C38.432 24.564 37.44 24.716 36.384 24.716ZM49.9433 24.692C48.7433 24.692 47.6873 24.444 46.7753 23.948C45.8793 23.452 45.1833 22.74 44.6873 21.812C44.1913 20.884 43.9433 19.804 43.9433 18.572C43.9433 17.34 44.1913 16.268 44.6873 15.356C45.1833 14.428 45.8793 13.716 46.7753 13.22C47.6873 12.724 48.7433 12.476 49.9433 12.476C51.1433 12.476 52.1913 12.724 53.0873 13.22C53.9993 13.716 54.6953 14.428 55.1753 15.356C55.6713 16.268 55.9193 17.34 55.9193 18.572C55.9193 19.804 55.6713 20.884 55.1753 21.812C54.6953 22.74 53.9993 23.452 53.0873 23.948C52.1913 24.444 51.1433 24.692 49.9433 24.692ZM49.9193 22.364C50.8953 22.364 51.6393 22.044 52.1513 21.404C52.6633 20.764 52.9193 19.82 52.9193 18.572C52.9193 17.34 52.6633 16.404 52.1513 15.764C51.6393 15.108 50.9033 14.78 49.9433 14.78C48.9833 14.78 48.2393 15.108 47.7113 15.764C47.1993 16.404 46.9433 17.34 46.9433 18.572C46.9433 19.82 47.1993 20.764 47.7113 21.404C48.2233 22.044 48.9593 22.364 49.9193 22.364ZM67.6599 12.524C68.1239 12.524 68.4919 12.652 68.7639 12.908C69.0359 13.164 69.1719 13.508 69.1719 13.94V23.252C69.1719 23.668 69.0279 24.004 68.7399 24.26C68.4679 24.516 68.1079 24.644 67.6599 24.644C67.2279 24.644 66.8839 24.524 66.6279 24.284C66.3719 24.044 66.2439 23.716 66.2439 23.3V22.7C65.8759 23.34 65.3799 23.836 64.7559 24.188C64.1319 24.524 63.4279 24.692 62.6439 24.692C59.7639 24.692 58.3239 23.076 58.3239 19.844V13.94C58.3239 13.508 58.4599 13.164 58.7319 12.908C59.0039 12.652 59.3639 12.524 59.8119 12.524C60.2759 12.524 60.6439 12.652 60.9159 12.908C61.1879 13.164 61.3239 13.508 61.3239 13.94V19.868C61.3239 20.7 61.4919 21.316 61.8279 21.716C62.1639 22.116 62.6919 22.316 63.4119 22.316C64.2439 22.316 64.9079 22.044 65.4039 21.5C65.9159 20.94 66.1719 20.204 66.1719 19.292V13.94C66.1719 13.508 66.3079 13.164 66.5799 12.908C66.8519 12.652 67.2119 12.524 67.6599 12.524ZM79.0384 12.476C80.0464 12.476 80.9424 12.732 81.7264 13.244C82.5264 13.756 83.1424 14.484 83.5744 15.428C84.0224 16.356 84.2464 17.428 84.2464 18.644C84.2464 19.86 84.0224 20.924 83.5744 21.836C83.1424 22.748 82.5344 23.452 81.7504 23.948C80.9664 24.444 80.0624 24.692 79.0384 24.692C78.2064 24.692 77.4624 24.516 76.8064 24.164C76.1504 23.812 75.6464 23.324 75.2944 22.7V27.596C75.2944 28.012 75.1584 28.34 74.8864 28.58C74.6144 28.82 74.2544 28.94 73.8064 28.94C73.3584 28.94 72.9904 28.812 72.7024 28.556C72.4304 28.3 72.2944 27.964 72.2944 27.548V13.94C72.2944 13.508 72.4224 13.164 72.6784 12.908C72.9504 12.652 73.3104 12.524 73.7584 12.524C74.2064 12.524 74.5664 12.652 74.8384 12.908C75.1104 13.164 75.2464 13.508 75.2464 13.94V14.54C75.5984 13.884 76.1024 13.38 76.7584 13.028C77.4304 12.66 78.1904 12.476 79.0384 12.476ZM78.2464 22.364C79.1904 22.364 79.9264 22.044 80.4544 21.404C80.9824 20.748 81.2464 19.828 81.2464 18.644C81.2464 17.428 80.9824 16.484 80.4544 15.812C79.9264 15.14 79.1904 14.804 78.2464 14.804C77.2864 14.804 76.5424 15.132 76.0144 15.788C75.5024 16.444 75.2464 17.38 75.2464 18.596C75.2464 19.796 75.5024 20.724 76.0144 21.38C76.5424 22.036 77.2864 22.364 78.2464 22.364ZM88.1964 24.644C87.7644 24.644 87.4044 24.524 87.1164 24.284C86.8444 24.028 86.7084 23.668 86.7084 23.204V8.87601C86.7084 8.41201 86.8444 8.06001 87.1164 7.82001C87.4044 7.58001 87.7644 7.46001 88.1964 7.46001C88.6284 7.46001 88.9884 7.58001 89.2764 7.82001C89.5644 8.06001 89.7084 8.41201 89.7084 8.87601V23.204C89.7084 23.668 89.5644 24.028 89.2764 24.284C88.9884 24.524 88.6284 24.644 88.1964 24.644ZM100.986 13.388C101.114 13.1 101.282 12.892 101.49 12.764C101.714 12.62 101.954 12.548 102.21 12.548C102.578 12.548 102.906 12.676 103.194 12.932C103.498 13.172 103.65 13.476 103.65 13.844C103.65 14.02 103.602 14.204 103.506 14.396L96.9542 28.124C96.6822 28.668 96.2582 28.94 95.6822 28.94C95.3142 28.94 94.9862 28.82 94.6982 28.58C94.4262 28.356 94.2902 28.068 94.2902 27.716C94.2902 27.54 94.3382 27.34 94.4342 27.116L96.0662 23.684L91.6022 14.396C91.5222 14.236 91.4822 14.052 91.4822 13.844C91.4822 13.476 91.6342 13.164 91.9382 12.908C92.2582 12.652 92.6182 12.524 93.0182 12.524C93.2902 12.524 93.5382 12.596 93.7622 12.74C93.9862 12.868 94.1622 13.076 94.2902 13.364L97.6502 20.78L100.986 13.388Z" fill="black"/>
<mask id="mask0_10_67" style="mask-type:luminance" maskUnits="userSpaceOnUse" x="0" y="6" width="21" height="22">
<path d="M21 6.5H0V27.5H21V6.5Z" fill="white"/>
</mask>
<g mask="url(#mask0_10_67)">
<path d="M11.1912 24.875L2.625 16.3087V18.0587C2.625 18.5225 2.80875 18.9687 3.14125 19.2925L9.9575 26.1087C10.64 26.7912 11.7513 26.7912 12.4338 26.1087L17.8675 20.675C18.55 19.9925 18.55 18.8812 17.8675 18.1987L11.1912 24.875Z" fill="black"/>
<path d="M9.9575 21.7337C10.64 22.4162 11.7513 22.4162 12.4338 21.7337L17.8675 16.3C18.55 15.6175 18.55 14.5063 17.8675 13.8238L11.0513 7.0075C10.7189 6.68314 10.2732 6.50109 9.80875 6.5H4.375C3.4125 6.5 2.625 7.2875 2.625 8.25V13.6838C2.625 14.1475 2.80875 14.5938 3.14125 14.9175L9.9575 21.7337ZM6.34375 9.125C6.63383 9.125 6.91203 9.24023 7.11715 9.44535C7.32227 9.65047 7.4375 9.92867 7.4375 10.2188C7.4375 10.5088 7.32227 10.787 7.11715 10.9921C6.91203 11.1973 6.63383 11.3125 6.34375 11.3125C6.05367 11.3125 5.77547 11.1973 5.57035 10.9921C5.36523 10.787 5.25 10.5088 5.25 10.2188C5.25 9.92867 5.36523 9.65047 5.57035 9.44535C5.77547 9.24023 6.05367 9.125 6.34375 9.125Z" fill="black"/>
</g>
</svg>
