<svg width="102" height="93" viewBox="0 0 102 93" fill="none" xmlns="http://www.w3.org/2000/svg">
<path d="M46.9415 1.85261C47.0711 3.73286 47.0423 5.62683 46.8552 7.49336C46.8264 7.72667 46.812 7.95999 46.7688 8.17958C46.7544 8.28937 46.74 8.39917 46.7256 8.50897C46.7112 8.67366 46.7688 8.24821 46.7256 8.49525C46.7112 8.56387 46.7112 8.64621 46.6968 8.71484C46.6248 9.18147 46.5385 9.64809 46.4522 10.1147C46.265 11.048 46.0204 11.9813 45.7325 12.8871C45.5886 13.3125 45.4446 13.738 45.2863 14.1634C45.1999 14.3693 45.1279 14.5752 45.0272 14.781C45.0128 14.8222 44.9552 14.8908 44.9552 14.9457C44.9552 14.8085 45.0416 14.7673 44.984 14.8634C44.9264 14.9732 44.8832 15.083 44.8257 15.1928C44.4802 15.9202 44.0628 16.6201 43.6022 17.2789C43.5015 17.4299 43.3863 17.5808 43.2712 17.7318C43.2136 17.8141 43.1416 17.8965 43.084 17.9788C43.0552 18.0063 43.0265 18.0475 43.0121 18.0749C43.156 17.8279 43.0696 18.0063 43.0265 18.0612C42.7674 18.3768 42.4795 18.6925 42.1917 18.9944C41.9038 19.2827 41.6159 19.5571 41.2992 19.8316C41.1553 19.9552 40.997 20.0787 40.8387 20.2022C40.7667 20.2571 40.6948 20.312 40.6228 20.3669C40.5076 20.4492 40.8387 20.2022 40.6659 20.3394C40.6084 20.3806 40.5652 20.4081 40.5076 20.4492C40.1334 20.71 39.7447 20.957 39.3417 21.1766C38.9387 21.3962 38.5213 21.5609 38.1039 21.7668C38.1183 21.7531 38.3486 21.6707 38.1902 21.7256C38.1327 21.7531 38.0751 21.7668 38.0175 21.7942C37.9024 21.8354 37.7873 21.8766 37.6577 21.9177C37.4418 21.9864 37.2259 22.055 36.9956 22.1099C36.5494 22.2334 36.0888 22.3158 35.6282 22.3707C35.3835 22.3981 35.0956 22.6452 34.9805 22.8373C34.8654 23.0432 34.8222 23.2627 34.851 23.4961C34.9229 23.9901 35.3691 24.3881 35.9161 24.3881C36.9668 24.3744 38.0175 24.3744 39.0682 24.443C39.3129 24.4568 39.5432 24.4842 39.7879 24.5117C39.8023 24.5117 40.0614 24.5528 39.8887 24.5254C39.7016 24.4979 39.9606 24.5391 39.9894 24.5391C40.119 24.5529 40.2485 24.5803 40.3781 24.6077C40.8962 24.7038 41.4 24.8273 41.8894 24.9783C41.9758 25.0058 42.0765 25.0469 42.1629 25.0744C42.206 25.0881 42.2636 25.1155 42.3068 25.1293C42.3931 25.1567 42.4795 25.2391 42.2492 25.1018C42.422 25.2116 42.6379 25.2665 42.825 25.3626C43.1848 25.541 43.5303 25.7331 43.8469 25.9527C43.9333 26.0076 44.0196 26.0625 44.106 26.1312C44.1348 26.1586 44.178 26.1861 44.2068 26.1998C44.3507 26.2959 44.1492 26.1586 44.1348 26.1449C44.2787 26.2821 44.4658 26.4057 44.6242 26.5292C44.9408 26.8037 45.2431 27.0781 45.5309 27.3801C45.6605 27.5173 45.79 27.6546 45.9052 27.7918C45.9627 27.8604 46.0204 27.9291 46.0923 28.0114C46.1787 28.1212 45.934 27.8055 46.0635 27.9702C46.1067 28.0251 46.1355 28.0663 46.1786 28.1212C46.4233 28.4369 46.6393 28.7663 46.8552 29.0956C47.0711 29.4387 47.2726 29.7956 47.4597 30.1524C47.5461 30.3308 47.6324 30.5093 47.7188 30.6877C47.7332 30.7288 47.7475 30.77 47.7763 30.7975C47.6612 30.5367 47.7331 30.6877 47.7619 30.7563C47.8051 30.8661 47.8483 30.9622 47.8915 31.072C48.2226 31.8954 48.4672 32.7326 48.6543 33.5835C48.7119 33.8306 48.7551 34.0639 48.7983 34.3109C48.8127 34.407 48.8271 34.5168 48.8558 34.6129C48.8702 34.6952 48.8847 34.7638 48.8847 34.8462C48.8847 34.805 48.8702 34.7638 48.8702 34.7227C48.8702 34.7776 48.8847 34.8187 48.8847 34.8736C48.9422 35.3677 48.9998 35.8481 49.0286 36.3422C49.1869 38.6067 49.043 40.8849 48.8847 43.1357C48.8559 43.6436 49.3165 44.0827 49.8202 44.1513C50.3528 44.22 50.8421 43.9043 51.0005 43.4102C52.1376 39.9654 52.2815 36.3284 53.1307 32.8287C53.3179 32.0464 53.5337 31.2641 53.8216 30.4955C53.8792 30.3308 53.9512 30.1661 54.0088 30.0152C54.0376 29.9328 54.0951 29.8505 54.1239 29.7544C54.1239 29.7681 54.0231 29.9877 54.0951 29.8368C54.1095 29.7956 54.1383 29.7407 54.1527 29.6995C54.311 29.3701 54.4693 29.0545 54.6421 28.7388C54.9875 28.1075 55.3905 27.5036 55.8367 26.9409C55.8655 26.9135 55.8943 26.8723 55.9087 26.8448C55.7647 27.0507 55.8079 26.9683 55.8511 26.9134C55.9087 26.8448 55.9663 26.7762 56.0239 26.7076C56.139 26.5703 56.2685 26.4331 56.398 26.2958C56.6427 26.0351 56.9018 25.7881 57.1609 25.5685C57.3193 25.4312 57.4632 25.3077 57.6359 25.1842C57.6647 25.1567 57.6935 25.143 57.7367 25.1155C57.4776 25.3077 57.6647 25.1704 57.7079 25.1293C57.7942 25.0744 57.8662 25.0195 57.9526 24.9646C58.2692 24.7587 58.6003 24.5666 58.9457 24.4019C59.0321 24.3607 59.1328 24.3195 59.2192 24.2784C59.2624 24.2646 59.2912 24.2509 59.3344 24.2372C59.5359 24.1548 59.1184 24.3195 59.3056 24.2509C59.4927 24.1823 59.6798 24.1137 59.8813 24.0588C60.0828 24.0039 60.2699 23.949 60.4714 23.9078C60.5578 23.8941 60.6585 23.8666 60.7449 23.8529C60.8313 23.8392 61.2343 23.7843 60.86 23.8254C61.1479 23.7843 61.4214 23.7431 61.6229 23.5235C61.7813 23.3588 61.882 23.1667 61.9252 22.9334C61.9972 22.4667 61.6805 21.904 61.1479 21.808C60.7305 21.7256 60.3131 21.6295 59.8957 21.506C59.7086 21.4511 59.5358 21.3825 59.3487 21.3276C59.2479 21.2864 59.1473 21.2453 59.0465 21.2178C59.3775 21.3413 59.0033 21.1903 58.9169 21.1629C58.154 20.8198 57.42 20.4081 56.7435 19.9277C56.7147 19.9003 56.6715 19.8728 56.6427 19.8591C56.4988 19.7493 56.7003 19.9003 56.7147 19.914C56.6427 19.8454 56.542 19.7905 56.4557 19.7218C56.2829 19.5846 56.1246 19.4611 55.9662 19.3238C55.6496 19.0493 55.3329 18.7611 55.0451 18.4455C54.7572 18.1435 54.4837 17.8416 54.2103 17.5259C54.1815 17.4847 54.1527 17.4436 54.1095 17.4024C54.1239 17.4161 54.2678 17.5945 54.1527 17.4573C54.0807 17.375 54.0231 17.2926 53.9511 17.2103C53.8216 17.0456 53.6921 16.8671 53.577 16.7025C53.102 16.03 52.6845 15.3163 52.3103 14.5889C52.2239 14.4105 52.1376 14.2458 52.0512 14.0674C52.0224 14.0262 52.0081 13.9713 51.9937 13.9301C51.9217 13.7792 52.0224 13.985 52.0224 13.9987C51.9792 13.8752 51.9217 13.7654 51.8785 13.6556C51.7202 13.2851 51.5762 12.9008 51.4323 12.5165C50.8277 10.8284 50.3816 9.0854 50.0217 7.32867C49.8202 6.35423 49.6331 5.36607 49.4748 4.37791C49.4028 3.91128 49.3309 3.45838 49.2589 2.99175C49.2301 2.75843 49.1869 2.53884 49.1581 2.30553C49.1437 2.22318 49.0861 1.83889 49.1437 2.182C49.1293 2.05848 49.115 1.94869 49.1006 1.82517C49.0574 1.53696 48.9998 1.30364 48.7839 1.09777C48.5968 0.919351 48.2945 0.782113 48.021 0.795838C47.7476 0.809562 47.4453 0.891902 47.2581 1.09777C47.071 1.31736 46.8984 1.59185 46.9415 1.85261C47.4453 5.46214 48.0211 9.11284 49.1869 12.5851C50.3096 15.8927 52.1376 19.0493 55.0019 21.259C56.6284 22.5079 58.4995 23.4686 60.5578 23.8392C60.6586 23.1667 60.7449 22.4942 60.8457 21.8217C59.9533 21.9315 59.1328 22.1511 58.298 22.4942C57.5639 22.7961 56.8874 23.2078 56.2541 23.6882C55.0163 24.6077 53.9943 25.8018 53.1883 27.0781C52.3391 28.4094 51.7202 29.8779 51.3027 31.3876C50.799 33.1718 50.5111 35.0109 50.2232 36.8362C49.9066 38.8949 49.5755 40.9536 48.9134 42.9436C49.6187 43.0397 50.324 43.122 51.0293 43.2181C51.3028 39.1557 51.5475 34.9011 50.1081 30.9896C48.9134 27.7232 46.5673 24.6626 43.156 23.2902C40.8674 22.3707 38.363 22.3432 35.9161 22.3707C36.0168 23.0432 36.1032 23.7156 36.2039 24.3881C39.8311 23.9078 42.9257 21.6707 45.0416 18.9258C47.3877 15.879 48.4097 12.0499 48.8991 8.34428C49.1869 6.18954 49.2445 4.02107 49.0862 1.86633C49.043 1.33108 48.6112 0.809552 48.0066 0.837001C47.4597 0.850725 46.8984 1.27619 46.9415 1.85261Z" fill="#231F20"/>
<path d="M6.97052 29.7544C7.21521 30.7837 7.43111 31.8268 7.61823 32.8698C7.71898 33.3776 7.80539 33.8854 7.87736 34.3933C7.92054 34.654 7.96369 34.9011 7.99248 35.1618C8.00687 35.2716 8.02123 35.3951 8.03563 35.5049C8.06441 35.6971 8.03563 35.5187 8.03563 35.4912C8.05002 35.5736 8.06444 35.6559 8.06444 35.752C8.35231 37.8244 8.52501 39.8968 8.61137 41.9829C8.65455 42.875 8.6546 43.7533 8.59703 44.6454C8.58264 44.8513 8.56819 45.0572 8.5394 45.263C8.52501 45.3728 8.51064 45.4826 8.49625 45.5924C8.48186 45.7022 8.52504 45.7845 8.49625 45.565C8.51064 45.6336 8.46743 45.7159 8.46743 45.7845C8.39547 46.21 8.3091 46.6217 8.17956 47.0335C8.12199 47.2393 8.05004 47.4315 7.97807 47.6373C7.94928 47.7197 7.89175 47.8158 7.87736 47.8981C7.93493 47.6922 7.93489 47.7883 7.9061 47.8432C7.87731 47.9118 7.84851 47.9667 7.81972 48.0354C7.61822 48.4334 7.38793 48.8039 7.11446 49.1607C7.04249 49.2431 6.98493 49.3392 6.91296 49.4215C6.92735 49.3941 7.05692 49.2431 6.94178 49.3804C6.91299 49.4215 6.88417 49.4627 6.84099 49.4901C6.69706 49.6686 6.5387 49.847 6.38037 50.0254C6.07811 50.3548 5.7471 50.6842 5.41605 50.9998C5.05621 51.3429 4.68194 51.6586 4.29331 51.9743C4.0918 52.139 3.89032 52.3036 3.67442 52.4546C3.63124 52.4958 3.57366 52.537 3.53048 52.5644C3.5017 52.5781 3.32897 52.7154 3.45851 52.6193C3.60245 52.5232 3.40094 52.6605 3.38655 52.6742C3.32897 52.7154 3.25703 52.7566 3.19946 52.8115C2.33585 53.4153 1.44345 53.978 0.536658 54.5133C0.148033 54.7466 -0.111107 55.2407 0.047222 55.6799C0.191157 56.0916 0.608597 56.4622 1.08358 56.4347C1.99038 56.3798 2.89717 56.3386 3.81835 56.3798C4.42288 56.4073 5.02741 56.4622 5.61754 56.5308C5.9486 56.5582 6.26522 56.5857 6.59628 56.6131C6.69703 56.6131 6.7978 56.6268 6.89855 56.6406C6.92734 56.6406 6.94173 56.6406 6.97052 56.6543C7.08567 56.668 7.05687 56.668 6.88415 56.6406C6.91293 56.6543 6.98496 56.6543 7.01374 56.6543C7.24404 56.6955 7.47431 56.7367 7.7046 56.8053C7.90611 56.8602 8.10764 56.9288 8.29475 56.9974C8.35233 57.0111 8.39552 57.0386 8.4531 57.0523C8.59703 57.1072 8.19397 56.9425 8.40987 57.0386C8.52502 57.0935 8.62582 57.1347 8.74097 57.1896C9.14398 57.3817 9.5182 57.6013 9.87804 57.8483C9.92122 57.8758 9.96439 57.9169 10.0076 57.9444C10.1659 58.0542 9.9644 57.917 9.95001 57.9032C9.99319 57.9719 10.1515 58.0542 10.2091 58.1091C10.3962 58.2601 10.5689 58.411 10.7417 58.562C11.0727 58.8639 11.4038 59.1933 11.6916 59.5227C11.8356 59.6874 11.9795 59.8521 12.109 60.0168C11.9651 59.8247 12.2674 60.2089 12.109 60.0168C12.1378 60.058 12.1666 60.0854 12.1954 60.1266C12.2818 60.2364 12.3681 60.3462 12.4401 60.456C12.7135 60.8265 12.9726 61.1971 13.2173 61.5814C13.7499 62.4186 14.2393 63.2969 14.6855 64.1753C14.9302 64.6557 15.1748 65.1497 15.4051 65.6301C15.4627 65.7399 15.5059 65.8497 15.5635 65.9595C15.5923 66.0144 15.6211 66.083 15.6499 66.1379C15.7218 66.3163 15.6498 66.1516 15.6355 66.1104C15.765 66.3849 15.8657 66.6594 15.9809 66.9339C16.9165 69.1847 17.6361 71.5042 18.1399 73.8785C18.2407 74.3863 18.8308 74.6745 19.3202 74.6196C19.8959 74.551 20.1982 74.1255 20.2558 73.604C20.7596 69.4729 19.6656 65.3693 19.9247 61.2245C19.9391 60.8952 19.9823 60.5658 20.0111 60.2501C20.0255 60.1678 20.0399 60.0854 20.0399 60.0031C20.0543 59.8658 19.9967 60.2913 20.0255 60.0854C20.0255 60.0442 20.0399 60.0168 20.0399 59.9756C20.0687 59.7972 20.0974 59.6188 20.1262 59.4404C20.2557 58.7404 20.4285 58.0405 20.63 57.368C20.7451 57.0111 20.8603 56.6543 20.9898 56.2975C21.0474 56.1328 21.105 55.9818 21.177 55.8308C21.2057 55.7485 21.2489 55.6661 21.2777 55.5838C21.3496 55.4328 21.2489 55.6524 21.2345 55.6661C21.2633 55.6112 21.2777 55.5564 21.3065 55.5015C21.6087 54.8564 21.9542 54.2251 22.3716 53.6349C22.4723 53.484 22.5875 53.333 22.7027 53.182C22.7171 53.1546 22.8466 53.0036 22.717 53.1546C22.6019 53.3055 22.7315 53.1408 22.7602 53.1134C22.8178 53.0448 22.8754 52.9762 22.9473 52.9075C23.192 52.633 23.4655 52.3723 23.7534 52.139C23.8254 52.0703 23.9117 52.0154 23.9837 51.9605C24.0844 51.8782 23.7822 52.0978 23.8973 52.0292C23.9405 52.0017 23.9837 51.9743 24.0268 51.9331C24.1852 51.837 24.3292 51.741 24.5019 51.6449C24.6602 51.5625 24.8185 51.4802 24.9768 51.4116C25.0056 51.3978 25.1784 51.3292 24.9912 51.3978C24.8185 51.4665 24.9625 51.4116 25.0056 51.3978C25.1064 51.3567 25.2071 51.3292 25.3079 51.3018C25.7397 51.1645 26.1283 50.7665 26.0995 50.3136C26.0707 49.847 25.7828 49.4764 25.3079 49.3255C23.4655 48.7353 21.5368 48.4883 19.68 47.9256C19.4641 47.8569 19.2482 47.7883 19.0323 47.706C18.9892 47.6922 18.9459 47.6785 18.9027 47.6648C18.874 47.6511 18.6868 47.555 18.8452 47.6373C19.0035 47.7197 18.8164 47.6236 18.7876 47.6099C18.73 47.5824 18.6581 47.555 18.6005 47.5276C18.1831 47.3491 17.7945 47.1295 17.4202 46.8825C17.3627 46.8413 17.3051 46.8002 17.2475 46.7727C17.1179 46.6904 17.2763 46.8139 17.3051 46.8139C17.2619 46.8276 17.0748 46.6355 17.0316 46.5943C16.8445 46.4296 16.6574 46.2649 16.4847 46.0865C16.3407 45.9355 16.1968 45.7708 16.0528 45.6061C15.9809 45.5238 15.9089 45.4414 15.8369 45.3591C16.0241 45.565 15.9089 45.4414 15.8658 45.3865C15.8226 45.3316 15.7794 45.263 15.7218 45.2081C15.2037 44.5356 14.7718 43.822 14.3832 43.0808C14.2824 42.8887 14.1961 42.7103 14.1097 42.5181C14.0665 42.4358 14.0234 42.3534 13.9946 42.2574C13.9658 42.2162 13.9514 42.1613 13.9226 42.1201C13.8363 41.928 14.009 42.3123 13.9226 42.1338C13.7499 41.7358 13.5915 41.3241 13.4332 40.9261C12.7855 39.2243 12.2817 37.4675 11.7204 35.7383C10.9431 33.4051 10.0364 31.1131 8.85609 28.9447C8.597 28.4643 7.84857 28.2859 7.37358 28.5741C6.85541 28.8897 6.71145 29.4662 6.98493 29.9877C7.2728 30.5092 7.5463 31.0445 7.80539 31.5797C7.92054 31.8268 8.05006 32.0738 8.15082 32.3209C8.13642 32.2934 8.06444 32.115 8.13641 32.2934C8.1652 32.3483 8.194 32.4169 8.22279 32.4718C8.28036 32.6091 8.33789 32.7463 8.39547 32.8698C8.79848 33.8306 9.15834 34.805 9.48939 35.7932C10.0939 37.5636 10.6121 39.3615 11.2454 41.1182C11.85 42.7926 12.584 44.4533 13.6348 45.9218C14.1961 46.7041 14.8294 47.5001 15.6066 48.104C16.4415 48.7765 17.3627 49.2568 18.3846 49.6274C20.4285 50.3822 22.6451 50.6018 24.7178 51.2606C24.7178 50.6018 24.7178 49.9431 24.7178 49.2706C21.58 50.2313 19.7808 53.2095 18.7876 56.0093C18.2695 57.4503 17.9528 58.96 17.7945 60.4697C17.593 62.4186 17.7369 64.3949 17.9096 66.3438C18.1111 68.7455 18.3558 71.1473 18.0679 73.5491C18.7732 73.453 19.4785 73.3707 20.1838 73.2746C19.7232 71.1199 19.0755 68.9926 18.2694 66.9339C17.449 64.8615 16.4846 62.8166 15.3188 60.8951C14.3256 59.2757 13.131 57.6974 11.6053 56.5033C10.7704 55.8583 9.90679 55.3368 8.89924 54.9662C8.00684 54.6231 7.07129 54.527 6.12132 54.4447C5.43043 54.3898 4.75396 54.3074 4.06307 54.2663C3.04113 54.2114 2.03356 54.2525 1.01162 54.3074C1.19873 54.9525 1.37143 55.5838 1.55854 56.2288C3.25698 55.227 4.91225 54.129 6.39478 52.8252C7.86292 51.5214 9.23035 50.0254 9.96442 48.2275C10.6697 46.4982 10.7848 44.5631 10.7417 42.7103C10.6985 40.6104 10.5257 38.5106 10.2666 36.4382C9.96436 33.9952 9.53255 31.5523 8.97121 29.1505C8.84167 28.629 8.17961 28.2721 7.64704 28.4368C7.14327 28.6702 6.82659 29.1917 6.97052 29.7544Z" fill="#231F20"/>
<path d="M63.5947 57.3954C63.7962 58.1503 63.9546 58.9051 64.0697 59.6874C64.0554 59.5913 64.0409 59.509 64.0265 59.4129C64.2424 60.9363 64.2712 62.5009 64.0553 64.0243C64.0697 63.9283 64.0841 63.8459 64.0985 63.7498C63.9258 64.985 63.5947 66.1928 63.0909 67.3319C63.1341 67.2496 63.163 67.1672 63.2061 67.0849C62.9614 67.6339 62.688 68.1691 62.3569 68.6769C62.1986 68.9377 62.0115 69.1984 61.8243 69.4455C61.738 69.5553 61.6516 69.6651 61.5653 69.7749C61.7956 69.4867 61.6085 69.72 61.5509 69.7886C61.4933 69.8572 61.4357 69.9258 61.3781 69.9807C60.9751 70.4474 60.5145 70.8728 60.0396 71.2708C59.9244 71.3669 59.7949 71.463 59.6797 71.5591C59.6078 71.614 59.3631 71.7924 59.6653 71.5728C59.5933 71.6139 59.5358 71.6688 59.4638 71.7237C59.1903 71.9159 58.9025 72.0943 58.6146 72.2727C58.0677 72.5884 57.5207 72.8629 56.9305 73.0962C57.0169 73.055 57.1032 73.0276 57.1896 72.9864C56.7722 73.1511 56.3548 73.3158 55.9374 73.4942C55.6495 73.6177 55.3761 73.7275 55.1602 73.9334C54.6708 74.3726 54.7571 75.1274 55.2609 75.498C55.52 75.6901 55.8655 75.745 56.1677 75.8274C56.6859 75.9783 57.204 76.1567 57.7078 76.3626C57.6214 76.3214 57.5351 76.294 57.4487 76.2528C58.8161 76.8155 60.1403 77.5155 61.3206 78.3664C61.3494 78.3938 61.3782 78.4075 61.4069 78.435C61.1623 78.2566 61.263 78.3389 61.3206 78.3664C61.3925 78.4213 61.4501 78.4624 61.5221 78.5173C61.6516 78.6134 61.7812 78.7232 61.8963 78.8193C62.1122 79.0114 62.3281 79.2036 62.5296 79.4231C62.6304 79.5192 62.7167 79.629 62.8175 79.7388C62.8607 79.7937 62.9038 79.8486 62.947 79.9035C62.9902 79.9584 63.0622 80.0545 62.8607 79.8074C62.8895 79.8486 62.9182 79.8761 62.947 79.9172C63.1197 80.1368 63.2925 80.3701 63.4364 80.6172C63.8107 81.1799 64.1129 81.7838 64.4008 82.4014C64.3576 82.319 64.3288 82.2367 64.2857 82.1543C65.322 84.5149 65.7969 87.0539 66.2575 89.5655C66.3727 90.238 66.5022 90.9105 66.6318 91.583C66.6749 91.8163 66.9196 92.0908 67.1211 92.2006C67.337 92.3104 67.5674 92.3516 67.8121 92.3241C68.3446 92.2555 68.7332 91.8301 68.7476 91.3085C68.7908 90.1694 68.834 89.0303 68.8772 87.8774C68.9204 86.7795 68.9203 85.6678 69.0787 84.5698C69.0643 84.6659 69.0499 84.7482 69.0355 84.8443C69.1794 83.8973 69.3953 82.9503 69.6544 82.0308C69.7839 81.5779 69.9279 81.125 70.0718 80.6721C70.2013 80.3015 70.3165 79.9172 70.4749 79.5467C70.4317 79.629 70.4029 79.7114 70.3597 79.7937C70.5612 79.3545 70.8203 78.9428 71.1226 78.5585C71.1658 78.5036 71.2089 78.4487 71.2521 78.3801C71.3529 78.2566 71.065 78.5997 71.2233 78.4076C71.324 78.284 71.4248 78.1742 71.5256 78.0507C71.7127 77.8311 71.9142 77.6252 72.1157 77.4194C72.5475 76.9939 73.0081 76.5822 73.4831 76.1842C73.5982 76.0881 73.7134 76.0058 73.8285 75.9097C73.8861 75.8685 73.9437 75.8273 74.0013 75.7724C74.0301 75.745 74.0588 75.7176 74.102 75.7038C74.0588 75.7313 73.8861 75.8685 74.0157 75.7587C74.246 75.594 74.4907 75.4293 74.721 75.2647C75.1959 74.9627 75.6853 74.6745 76.2179 74.4686C76.1315 74.5098 76.0452 74.5373 75.9588 74.5784C76.002 74.5647 76.0452 74.551 76.0883 74.5235C76.3474 74.4275 76.5921 74.2902 76.736 74.0569C76.8512 73.851 76.8944 73.6314 76.8656 73.3981C76.7936 72.8903 76.3474 72.506 75.8005 72.506C75.5558 72.506 75.3111 72.4923 75.0808 72.4649C75.1815 72.4786 75.2679 72.4923 75.3687 72.506C74.8937 72.4374 74.4187 72.3139 73.9725 72.1355C74.0588 72.1766 74.1452 72.2041 74.2316 72.2453C73.9581 72.1355 73.699 72.012 73.4543 71.861C73.3247 71.7924 73.2096 71.71 73.0801 71.6414C73.0225 71.6002 72.9505 71.559 72.8929 71.5179C72.8642 71.5041 72.8354 71.4767 72.8066 71.463C72.7922 71.4492 72.7778 71.4355 72.7634 71.4355C72.6627 71.3532 72.9073 71.5453 72.8929 71.5316C72.4036 71.1473 71.943 70.7356 71.5112 70.2827C71.4104 70.1592 71.2953 70.0494 71.1945 69.9258C71.1514 69.8709 71.0938 69.8023 71.0506 69.7474C70.9355 69.6102 71.1658 69.8847 71.1226 69.8298C71.0938 69.7886 71.065 69.7611 71.0362 69.72C70.8203 69.4592 70.6332 69.1847 70.4316 68.9102C70.0286 68.3338 69.6688 67.7299 69.3378 67.1123C68.9492 66.3987 68.5893 65.6575 68.2583 64.9164C68.3015 64.9988 68.3302 65.0811 68.3734 65.1635C67.409 62.9813 66.6605 60.703 66.0416 58.3973C65.8977 57.8621 65.7682 57.3405 65.6386 56.8053C65.5091 56.2837 64.847 55.9269 64.3144 56.0916C63.7674 56.3112 63.4508 56.8327 63.5947 57.3954C63.897 58.6443 64.228 59.8933 64.6167 61.1285C65.0629 62.5695 65.5811 64.0106 66.1712 65.4105C66.8045 66.879 67.5098 68.3338 68.4022 69.6788C69.1939 70.8865 70.1438 72.0669 71.3097 72.9589C71.871 73.3844 72.4612 73.7824 73.1233 74.0569C73.8573 74.3588 74.577 74.551 75.3831 74.6196C75.5414 74.6333 75.6997 74.6333 75.8436 74.6333C75.7429 73.9608 75.6565 73.2883 75.5557 72.6158C74.3755 73.055 73.3535 73.7412 72.3748 74.4961C71.396 75.2509 70.4749 76.1018 69.6976 77.0488C69.309 77.5155 68.9491 77.9821 68.6613 78.5173C68.3302 79.1487 68.1143 79.8349 67.8984 80.5074C67.3803 82.1406 66.9628 83.8013 66.8333 85.5031C66.7613 86.4638 66.7469 87.4382 66.7181 88.3989C66.6894 89.3871 66.6461 90.3615 66.6174 91.3497C67.3226 91.2536 68.028 91.1713 68.7332 91.0752C68.2151 88.344 67.8264 85.5717 66.9052 82.9366C66.4302 81.6053 65.8401 80.2741 64.9765 79.1212C64.5447 78.5311 64.0554 77.9821 63.5084 77.488C62.8751 76.939 62.1698 76.445 61.4501 76.0058C60.6585 75.5117 59.8237 75.0725 58.96 74.702C58.4707 74.4824 57.9669 74.2902 57.4487 74.1118C57.0313 73.9746 56.6139 73.8648 56.1965 73.7412C56.2828 73.7824 56.3692 73.8099 56.4556 73.851C56.5851 73.9745 56.7002 74.0843 56.8298 74.2079C56.8729 74.2902 56.9018 74.3726 56.945 74.4549C56.9593 74.551 56.9737 74.6333 56.9881 74.7294C56.9737 74.8255 56.9593 74.9078 56.945 75.0039C56.9018 75.0862 56.8729 75.1686 56.8298 75.2509C56.7434 75.3745 56.6283 75.5254 56.4987 75.5803C56.5275 75.5666 56.5419 75.5529 56.5707 75.5391C56.6427 75.498 56.7146 75.4705 56.7866 75.4293C56.9881 75.3333 57.204 75.2509 57.4199 75.1686C57.3336 75.2097 57.2472 75.2372 57.1609 75.2784C57.751 75.0451 58.3555 74.8117 58.9312 74.5235C59.5933 74.1941 60.2123 73.8099 60.8024 73.3844C62.0546 72.4649 63.1342 71.3806 63.9834 70.118C65.6242 67.7162 66.3439 64.8066 66.3583 61.9657C66.3583 60.2638 66.1136 58.5483 65.6818 56.9013C65.5378 56.3798 64.9046 56.0093 64.3576 56.1877C63.7819 56.3112 63.4364 56.8327 63.5947 57.3954Z" fill="#231F20"/>
<path d="M78.1757 20.9845C78.2908 21.4923 78.3916 22.0001 78.4779 22.5079C78.5211 22.7549 78.5643 23.0157 78.6075 23.2765C78.6218 23.3588 78.6938 23.7431 78.6362 23.4412C78.665 23.5921 78.6794 23.7431 78.6938 23.8803C78.8234 24.9234 78.9241 25.9802 78.9817 27.037C79.0968 29.1642 79.0824 31.3053 78.9241 33.4188C78.8809 33.9404 78.8377 34.4619 78.7945 34.9971C78.7658 35.2304 78.7514 35.4775 78.7226 35.7108C78.7082 35.8206 78.6938 35.9304 78.6794 36.0539C78.6794 36.1088 78.665 36.1637 78.665 36.2049C78.6506 36.2872 78.665 36.2461 78.6794 36.0814C78.6794 36.1225 78.665 36.1637 78.665 36.2049C78.5355 37.0833 78.334 37.9479 78.0893 38.7988C77.9597 39.2243 77.8158 39.6497 77.6575 40.0615C77.5711 40.2673 77.4991 40.4732 77.4128 40.6791C77.3984 40.734 77.3696 40.7751 77.3552 40.83C77.4416 40.5693 77.3984 40.7202 77.3696 40.7888C77.312 40.8986 77.2688 41.0222 77.2113 41.132C76.8226 41.9417 76.3764 42.7103 75.8439 43.4514C75.6999 43.6573 75.5416 43.8631 75.3833 44.0553C75.3401 44.1102 75.2538 44.1788 75.4265 44.0004C75.3833 44.0553 75.3257 44.1102 75.2825 44.1651C75.1962 44.2611 75.1242 44.3572 75.0378 44.4533C74.7068 44.8238 74.3614 45.1669 73.9871 45.5101C73.8 45.6747 73.6129 45.8394 73.4114 46.0041C73.3106 46.0865 73.1955 46.1551 73.1091 46.2375C73.2962 46.059 73.2243 46.1551 73.1523 46.21C73.0948 46.2512 73.0371 46.2923 72.9652 46.3335C72.5478 46.6217 72.1016 46.8962 71.641 47.1295C71.238 47.3354 71.0076 47.8707 71.1516 48.2961C71.2091 48.4608 71.2956 48.6255 71.4251 48.749C71.5834 48.9137 71.9432 49.0784 72.1879 49.051C73.1523 48.9412 74.1167 48.8863 75.081 48.9137C75.556 48.9274 76.0166 48.9549 76.4916 48.9961C76.6067 49.0098 76.7363 49.0235 76.8514 49.0372C76.9378 49.051 77.3696 49.1059 76.9954 49.051C77.24 49.0921 77.4847 49.1196 77.7294 49.1608C78.665 49.3117 79.6006 49.5313 80.5074 49.8058C80.968 49.9431 81.4285 50.094 81.8747 50.2724C81.9755 50.3136 82.0619 50.3411 82.1626 50.3822C82.2202 50.4097 82.2778 50.4234 82.3354 50.4509C82.0331 50.3411 82.2346 50.4097 82.3065 50.4371C82.5368 50.5332 82.7528 50.6293 82.9831 50.7253C83.8611 51.1234 84.7103 51.5625 85.5163 52.0566C85.9194 52.3037 86.308 52.5507 86.6822 52.8252C86.783 52.8938 86.8837 52.9624 86.9844 53.0311C87.0276 53.0722 87.0852 53.0997 87.1284 53.1408C86.8981 52.9762 86.9988 53.0448 87.0564 53.086C87.2723 53.2507 87.4739 53.4016 87.6754 53.5663C88.3951 54.1427 89.0859 54.7741 89.7192 55.4328C90.0503 55.7759 90.367 56.1328 90.6836 56.5033C90.7412 56.5857 90.8131 56.6543 90.8707 56.7367C90.6404 56.4759 90.9139 56.7916 90.9571 56.8602C91.101 57.0523 91.2449 57.2445 91.3889 57.4366C91.9934 58.2738 92.5404 59.1522 93.001 60.058C93.1161 60.2913 93.2312 60.5246 93.332 60.7442C93.4184 60.9363 93.2312 60.5109 93.3176 60.7167C93.3464 60.7854 93.3752 60.8677 93.404 60.9363C93.4472 61.0461 93.4903 61.1559 93.5335 61.2657C93.735 61.7598 93.9077 62.2676 94.0517 62.7754C94.21 63.2969 94.829 63.6675 95.3759 63.4891C95.635 63.4067 95.8941 63.2558 96.0236 63.0224C96.1676 62.7617 96.1819 62.5146 96.1387 62.2264C96.1387 62.2127 96.0955 61.9519 96.1243 62.1166C96.1531 62.2813 96.11 62.0343 96.11 62.0206C96.0956 61.9245 96.0812 61.8284 96.0668 61.7324C96.038 61.5128 96.0092 61.2932 95.9948 61.0736C95.966 60.7305 95.9372 60.3874 95.9228 60.0442C95.9084 59.509 95.9228 58.96 95.9084 58.4248C95.9084 57.7523 95.8653 57.0935 95.7933 56.421C95.7357 55.9132 95.6638 55.4054 95.5918 54.8976C95.5486 54.5956 95.5055 54.2937 95.4623 53.978C95.4479 53.9231 95.4479 53.8682 95.4335 53.8133C95.3903 53.5526 95.4623 53.978 95.4335 53.8133C95.4191 53.6624 95.3903 53.5251 95.3759 53.3742C95.2464 52.3997 95.1312 51.4116 95.1024 50.4234C95.0881 49.9156 95.088 49.4215 95.1312 48.9137C95.1456 48.6804 95.16 48.4334 95.2032 48.2C95.1456 48.4883 95.232 48.0628 95.232 48.0079C95.2608 47.8707 95.2752 47.7471 95.3039 47.6099C95.3903 47.1844 95.5198 46.7727 95.6638 46.3747C95.7214 46.1963 95.7933 46.0179 95.8653 45.8394C95.8941 45.7571 95.9229 45.6748 95.9661 45.6061C95.9805 45.5512 96.0092 45.5101 96.0236 45.4552C96.1244 45.2356 95.9804 45.565 96.0236 45.4689C96.3691 44.7415 96.7577 44.0415 97.2183 43.3828C97.3478 43.2043 97.5349 43.0122 97.6501 42.8201C97.6357 42.8338 97.4918 43.0122 97.6069 42.875C97.6501 42.8201 97.6933 42.7789 97.7364 42.724C97.8084 42.6417 97.8804 42.5593 97.9523 42.477C98.2546 42.1476 98.5713 41.8319 98.9167 41.53C99.0895 41.379 99.2765 41.228 99.4637 41.0771C99.6076 40.9673 99.4205 41.1182 99.4061 41.1182C99.4637 41.0908 99.5069 41.0359 99.5644 41.0084C99.6652 40.9398 99.7659 40.8712 99.8523 40.8026C100.241 40.5418 100.644 40.3222 101.076 40.1164C101.479 39.9242 101.709 39.3615 101.565 38.9498C101.407 38.4969 101.018 38.2224 100.529 38.1949C100.025 38.1675 99.5212 38.1263 99.0174 38.0714C98.9023 38.0577 98.7872 38.044 98.672 38.0302C98.6144 38.0302 98.5568 38.0028 98.4993 38.0028C98.7871 37.9891 98.6 38.0165 98.5137 38.0028C98.2546 37.9616 97.9955 37.9342 97.7508 37.893C96.7721 37.7283 95.8077 37.5224 94.8721 37.2617C94.3972 37.1244 93.9365 36.9872 93.4759 36.8225C93.26 36.7401 93.0441 36.6715 92.8138 36.5892C92.785 36.5754 92.4828 36.4656 92.4828 36.4656C92.526 36.4794 92.5691 36.5068 92.6123 36.5205C92.5691 36.5068 92.526 36.4794 92.4828 36.4656C92.4252 36.4382 92.3533 36.4107 92.2957 36.3833C91.3889 35.999 90.5253 35.5598 89.6905 35.052C89.2731 34.7913 88.8556 34.5305 88.467 34.2423C88.4238 34.2148 88.395 34.1874 88.3518 34.1599C88.395 34.2011 88.5965 34.3246 88.3518 34.1599C88.2655 34.0913 88.1647 34.0227 88.0784 33.9541C87.8769 33.8031 87.6897 33.6384 87.5026 33.4737C87.1428 33.1581 86.783 32.8287 86.4519 32.4856C86.1065 32.1287 85.8042 31.7444 85.4731 31.3876C85.6746 31.6072 85.43 31.3327 85.3868 31.2641C85.3149 31.168 85.2429 31.0857 85.1709 30.9896C85.0126 30.7837 84.8686 30.5779 84.7247 30.372C84.4368 29.9603 84.1777 29.5348 83.9187 29.1093C83.4149 28.2584 82.9687 27.3801 82.5513 26.4743C82.5369 26.4331 82.5081 26.3919 82.4937 26.3507C82.4793 26.3096 82.4505 26.2684 82.4361 26.2272C82.4937 26.3645 82.5081 26.3782 82.4649 26.2821C82.4073 26.1586 82.3498 26.0213 82.2922 25.8978C82.1915 25.6508 82.0907 25.4038 81.9899 25.1567C81.7884 24.6489 81.5869 24.1274 81.3998 23.6196C81.0112 22.5628 80.6513 21.506 80.2915 20.4492C80.1187 19.9414 79.5286 19.5571 78.9673 19.7356C78.3916 19.8865 77.9885 20.4355 78.1757 20.9845C79.4711 24.841 80.824 28.8211 83.3429 32.1287C84.6239 33.8168 86.1641 35.2716 87.9777 36.4656C89.6905 37.591 91.6048 38.442 93.5767 39.0596C95.8221 39.7595 98.1682 40.1438 100.529 40.2673C100.342 39.6223 100.169 38.991 99.9818 38.3459C96.7145 39.8968 94.4403 42.9848 93.4472 46.2924C92.8427 48.3099 92.8714 50.4097 93.1161 52.4684C93.1881 53.0448 93.26 53.6075 93.3464 54.1839C93.3608 54.3212 93.3896 54.4447 93.404 54.5819C93.4184 54.6368 93.4184 54.6917 93.4328 54.7466C93.476 55.0074 93.404 54.5819 93.4328 54.7603C93.476 55.0211 93.5047 55.2956 93.5479 55.5564C93.6487 56.3661 93.7494 57.1758 93.7638 57.9856C93.7782 58.6032 93.7638 59.2208 93.7782 59.8384C93.807 60.8128 93.9222 61.7873 94.0661 62.7617C94.757 62.5833 95.4479 62.3911 96.1531 62.2127C95.0448 58.4797 92.7419 55.1035 89.7192 52.537C86.6966 49.9568 82.9543 48.0765 78.9817 47.2942C76.7651 46.8551 74.4621 46.7178 72.2167 46.9923C72.4039 47.6374 72.5766 48.2687 72.7637 48.9137C76.3045 47.0609 78.6938 43.7259 79.946 40.1301C80.5937 38.2636 80.8816 36.3284 81.0399 34.3658C81.2271 32.1974 81.2847 30.0289 81.1983 27.8604C81.0975 25.3763 80.824 22.8922 80.2915 20.4629C80.1763 19.9414 79.4999 19.5846 78.9673 19.7493C78.3484 19.9002 78.0605 20.4218 78.1757 20.9845Z" fill="#231F20"/>
</svg>
