<svg width="162" height="46" viewBox="0 0 162 46" fill="none" xmlns="http://www.w3.org/2000/svg">
<g clip-path="url(#clip0_13_215)">
<path d="M55.9359 25.4738C54.5566 24.7162 53.8306 24.1028 53.8306 23.237C53.8306 22.1185 54.8107 21.433 56.3715 21.433C58.1864 21.433 59.7836 22.1907 59.7836 22.1907L61.054 18.3303C61.054 18.3303 59.8925 17.4283 56.4441 17.4283C51.6527 17.4283 48.3132 20.1703 48.3132 23.9946C48.3132 26.1593 49.8741 27.8189 51.9431 29.0095C53.6128 29.9476 54.1936 30.633 54.1936 31.6072C54.1936 32.6534 53.3587 33.4832 51.7979 33.4832C49.4748 33.4832 47.2969 32.2927 47.2969 32.2927L45.9538 36.153C45.9538 36.153 47.9866 37.4879 51.3623 37.4879C56.2989 37.4879 59.8199 35.0707 59.8199 30.7413C59.8925 28.3601 58.0775 26.7005 55.9359 25.4738Z" fill="white"/>
<path d="M75.6097 17.3562C73.1777 17.3562 71.2902 18.5107 69.8019 20.2425L69.7293 20.2064L71.8346 9.23853H66.3173L60.9814 37.1272H66.4625L68.2774 27.6025C69.0034 23.9946 70.8546 21.7938 72.5969 21.7938C73.8311 21.7938 74.3029 22.6236 74.3029 23.8142C74.3029 24.5719 74.2303 25.4738 74.0488 26.2315L71.9798 37.1632H77.4609L79.6025 25.9068C79.8566 24.7162 80.0018 23.3091 80.0018 22.335C80.0744 19.1962 78.4773 17.3562 75.6097 17.3562Z" fill="white"/>
<path d="M92.4885 17.3562C85.8821 17.3562 81.49 23.273 81.49 29.8754C81.49 34.0966 84.1035 37.524 89.0401 37.524C95.5375 37.524 99.8933 31.7515 99.8933 25.0048C99.9296 21.0723 97.6428 17.3562 92.4885 17.3562ZM89.8024 33.3028C87.9149 33.3028 87.1526 31.7154 87.1526 29.7311C87.1526 26.5923 88.786 21.5052 91.7625 21.5052C93.7226 21.5052 94.3397 23.1648 94.3397 24.7883C94.3397 28.1797 92.7062 33.3028 89.8024 33.3028Z" fill="white"/>
<path d="M113.977 17.3562C110.275 17.3562 108.169 20.6032 108.169 20.6032H108.097L108.423 17.6809H103.559C103.305 19.6652 102.87 22.6597 102.434 24.9326L98.6229 44.8479H104.104L105.629 36.7664H105.737C105.737 36.7664 106.863 37.4879 108.968 37.4879C115.429 37.4879 119.64 30.9217 119.64 24.2832C119.64 20.6393 118.006 17.3562 113.977 17.3562ZM108.75 33.4111C107.335 33.4111 106.5 32.6174 106.5 32.6174L107.407 27.5303C108.061 24.1389 109.839 21.866 111.727 21.866C113.396 21.866 113.905 23.4174 113.905 24.8605C113.905 28.3601 111.799 33.4111 108.75 33.4111Z" fill="white"/>
<path d="M127.48 9.52716C125.738 9.52716 124.322 10.8981 124.322 12.7021C124.322 14.3256 125.339 15.444 126.899 15.444H126.972C128.678 15.444 130.166 14.2895 130.203 12.2691C130.239 10.6456 129.15 9.52716 127.48 9.52716Z" fill="white"/>
<path d="M119.785 37.1272H125.302L129.041 17.7891H123.487L119.785 37.1272Z" fill="white"/>
<path d="M142.98 17.753H139.168L139.35 16.8511C139.676 14.975 140.765 13.3154 142.617 13.3154C143.597 13.3154 144.359 13.604 144.359 13.604L145.448 9.34677C145.448 9.34677 144.504 8.87775 142.471 8.87775C140.511 8.87775 138.588 9.41892 137.099 10.6817C135.212 12.2691 134.341 14.5421 133.905 16.8511L133.76 17.753H131.219L130.42 21.866H132.961L130.057 37.1272H135.538L138.442 21.866H142.217L142.98 17.753Z" fill="white"/>
<path d="M156.192 17.7891C156.192 17.7891 152.744 26.3758 151.219 31.066H151.147C151.038 29.5507 149.804 17.7891 149.804 17.7891H144.032L147.335 35.5397C147.408 35.9366 147.372 36.1891 147.227 36.4417C146.573 37.6683 145.521 38.8589 144.25 39.7248C143.234 40.4825 142.072 40.9515 141.165 41.2762L142.689 45.8942C143.814 45.6417 146.101 44.7397 148.061 42.9358C150.566 40.5907 152.889 37.0189 155.248 32.1123L161.964 17.7891H156.192Z" fill="white"/>
<path d="M27.0423 5.23383C27.0423 5.23383 26.5342 5.37814 25.6993 5.63069C25.5541 5.16167 25.3363 4.6205 25.0459 4.04324C24.1022 2.23932 22.6865 1.2652 21.0168 1.2652C20.9079 1.2652 20.799 1.2652 20.6538 1.30128C20.6175 1.22912 20.5449 1.19304 20.5086 1.12089C19.7827 0.327162 18.8389 -0.0336219 17.7136 0.00245652C15.5357 0.0746134 13.3578 1.62599 11.6155 4.40403C10.3814 6.35226 9.4376 8.80559 9.18351 10.7178C6.67892 11.4754 4.93659 12.0166 4.90029 12.0527C3.62985 12.4495 3.59355 12.4856 3.44835 13.6762C3.33946 14.5781 0 39.9774 0 39.9774L27.4416 44.7036V5.19775C27.2238 5.19775 27.1149 5.23383 27.0423 5.23383ZM20.6901 7.18206C19.2382 7.61501 17.641 8.1201 16.0802 8.58912C16.5158 6.89344 17.387 5.19775 18.4033 4.07932C18.8026 3.68246 19.3471 3.21344 19.9641 2.92481C20.5812 4.22363 20.7264 5.99148 20.6901 7.18206ZM17.7136 1.48167C18.2218 1.48167 18.6574 1.58991 19.0204 1.80638C18.4396 2.09501 17.8588 2.56403 17.3144 3.1052C15.935 4.58442 14.8824 6.89344 14.4468 9.09422C13.14 9.49108 11.8333 9.88795 10.6354 10.2487C11.434 6.7852 14.3742 1.55383 17.7136 1.48167ZM13.503 21.3248C13.6482 23.6338 19.7827 24.1389 20.1456 29.5868C20.3997 33.8801 17.8588 36.8025 14.1927 37.0189C9.76429 37.3076 7.33229 34.7099 7.33229 34.7099L8.27605 30.7413C8.27605 30.7413 10.708 32.5813 12.6682 32.437C13.9386 32.3648 14.4105 31.3185 14.3742 30.597C14.1927 27.5664 9.18351 27.7468 8.85682 22.7679C8.56644 18.5828 11.3251 14.3617 17.4233 13.9648C19.7827 13.8205 20.9805 14.3978 20.9805 14.3978L19.6012 19.593C19.6012 19.593 18.0403 18.8715 16.1891 19.0158C13.503 19.1962 13.4667 20.8919 13.503 21.3248ZM22.1421 6.74912C22.1421 5.66677 21.9969 4.1154 21.4887 2.81657C23.1584 3.14128 23.957 4.98128 24.32 6.09971C23.6666 6.2801 22.9406 6.49657 22.1421 6.74912Z" fill="white"/>
<path d="M28.2765 44.6315L39.6742 41.8174C39.6742 41.8174 34.7739 8.87775 34.7376 8.66128C34.7013 8.44481 34.5198 8.3005 34.3383 8.3005C34.1568 8.3005 30.9626 8.22834 30.9626 8.22834C30.9626 8.22834 29.0025 6.35226 28.2765 5.63069V44.6315Z" fill="white"/>
</g>
<defs>
<clipPath id="clip0_13_215">
<rect width="162" height="46" fill="white"/>
</clipPath>
</defs>
</svg>
