<svg width="35" height="35" viewBox="0 0 35 35" fill="none" xmlns="http://www.w3.org/2000/svg">
<path d="M27.8519 15.5141C22.2109 12.1641 12.9061 11.8561 7.52107 13.4904C6.65628 13.7529 5.74177 13.2645 5.47982 12.4C5.21771 11.5347 5.70537 10.6208 6.57081 10.3579C12.7525 8.48158 23.0286 8.84394 29.5226 12.6989C30.3004 13.1607 30.5556 14.1652 30.0946 14.9417C29.6332 15.7195 28.6278 15.9759 27.8519 15.5141ZM27.6671 20.476C27.2714 21.1182 26.4317 21.3196 25.7904 20.9253C21.0874 18.0344 13.9162 17.197 8.3523 18.8859C7.63078 19.104 6.86868 18.6971 6.64951 17.977C6.43211 17.2554 6.83913 16.4947 7.55935 16.2753C13.9153 14.3466 21.8167 15.2808 27.2183 18.6002C27.8596 18.9952 28.0615 19.8353 27.6671 20.476ZM25.5258 25.2412C25.2113 25.757 24.5399 25.9185 24.026 25.6042C19.9165 23.0926 14.744 22.5254 8.65245 23.9167C8.06544 24.0513 7.4804 23.6835 7.34653 23.0965C7.21208 22.5097 7.57854 21.9246 8.16684 21.7906C14.833 20.2667 20.5512 20.9226 25.1639 23.7412C25.6781 24.0553 25.8401 24.7271 25.5258 25.2412ZM17.5001 0C7.83518 0 0 7.83501 0 17.4998C0 27.1656 7.83518 35 17.5001 35C27.1652 35 35 27.1656 35 17.4998C35 7.83501 27.1652 0 17.5001 0Z" fill="#1B1716"/>
</svg>
