<svg width="35" height="35" viewBox="0 0 35 35" fill="none" xmlns="http://www.w3.org/2000/svg">
<g clip-path="url(#clip0_17_338)">
<path d="M17.5004 35.0009C27.1657 35.0009 35.0009 27.1657 35.0009 17.5004C35.0009 7.83521 27.1657 0 17.5004 0C7.83521 0 0 7.83521 0 17.5004C0 27.1657 7.83521 35.0009 17.5004 35.0009Z" fill="black"/>
<path d="M15.0651 14.5506V13.5955C14.7376 13.5507 14.4049 13.5226 14.0651 13.5226C9.97404 13.5226 6.64584 16.8508 6.64584 20.9419C6.64584 23.4518 7.90039 25.673 9.81338 27.0162C8.57814 25.6905 7.8205 23.9145 7.8205 21.9647C7.8205 17.9324 11.0548 14.6437 15.0651 14.5497V14.5506Z" fill="#25F4EE"/>
<path d="M15.2398 25.3543C17.065 25.3543 18.5539 23.9023 18.6215 22.0937L18.6277 5.93916H21.5792C21.5178 5.6073 21.4844 5.26579 21.4844 4.91638H17.453L17.4469 21.071C17.3793 22.8804 15.8903 24.3316 14.0651 24.3316C13.498 24.3316 12.9633 24.1893 12.4937 23.9426C13.11 24.796 14.1099 25.3552 15.2407 25.3552L15.2398 25.3543Z" fill="#25F4EE"/>
<path d="M27.0926 11.4217V10.5236C25.9671 10.5236 24.918 10.1891 24.0383 9.61584C24.8214 10.5148 25.8854 11.1636 27.0926 11.4217Z" fill="#25F4EE"/>
<path d="M24.0383 9.61496C23.1806 8.62993 22.6591 7.34378 22.6591 5.93823H21.5793C21.8637 7.47371 22.775 8.79147 24.0383 9.61496Z" fill="#FE2C55"/>
<path d="M14.0651 17.554C12.1969 17.554 10.6764 19.0737 10.6764 20.9428C10.6764 22.2439 11.4147 23.3746 12.4928 23.9418C12.0907 23.3852 11.851 22.703 11.851 21.9656C11.851 20.0974 13.3716 18.5768 15.2398 18.5768C15.5883 18.5768 15.9228 18.6348 16.2397 18.7331V14.6183C15.9123 14.5735 15.5795 14.5454 15.2398 14.5454C15.181 14.5454 15.123 14.5489 15.0642 14.5498V17.7103C14.7481 17.6111 14.4128 17.554 14.0643 17.554H14.0651Z" fill="#FE2C55"/>
<path d="M27.0926 11.4218V14.555C25.0023 14.555 23.0656 13.8861 21.4844 12.7518V20.9437C21.4844 25.0348 18.1562 28.363 14.0651 28.363C12.484 28.363 11.0179 27.8643 9.81339 27.018C11.1689 28.4727 13.0994 29.3857 15.2407 29.3857C19.3318 29.3857 22.66 26.0575 22.66 21.9664V13.7746C24.2411 14.9097 26.1778 15.5778 28.2681 15.5778V11.5464C27.8652 11.5464 27.4718 11.5025 27.0935 11.4218H27.0926Z" fill="#FE2C55"/>
<path d="M21.4844 20.9427V12.7509C23.0656 13.886 25.0022 14.5541 27.0926 14.5541V11.4208C25.8854 11.1627 24.8214 10.5139 24.0383 9.61496C22.775 8.79147 21.8637 7.47371 21.5792 5.93823H18.6277L18.6215 22.0928C18.5539 23.9022 17.065 25.3534 15.2398 25.3534C14.109 25.3534 13.1091 24.7951 12.4928 23.9408C11.4138 23.3728 10.6764 22.2429 10.6764 20.9419C10.6764 19.0737 12.1969 17.5531 14.0651 17.5531C14.4137 17.5531 14.7482 17.611 15.0651 17.7094V14.5489C11.0547 14.6428 7.8205 17.9315 7.8205 21.9638C7.8205 23.9145 8.57814 25.6897 9.81337 27.0153C11.0188 27.8616 12.484 28.3603 14.0651 28.3603C18.1562 28.3603 21.4844 25.0321 21.4844 20.941V20.9427Z" fill="white"/>
</g>
<defs>
<clipPath id="clip0_17_338">
<rect width="35" height="35" fill="white"/>
</clipPath>
</defs>
</svg>
