<svg width="159" height="39" viewBox="0 0 159 39" fill="none" xmlns="http://www.w3.org/2000/svg">
<g clip-path="url(#clip0_13_229)">
<path fill-rule="evenodd" clip-rule="evenodd" d="M88.3445 24.795C88.3445 25.1005 88.2943 25.4569 88.244 25.7115C87.7917 27.0352 86.5856 27.9008 85.1786 27.9008C83.9222 27.9008 82.9674 27.188 82.9674 25.6606C82.9674 23.3185 85.4801 22.7076 88.3947 22.7076V24.795H88.3445ZM92.8673 20.7219C92.8673 16.9034 91.2592 13.4922 85.7816 13.4922C82.9674 13.4922 80.7061 14.3068 79.5 15.0196L80.4045 18.1253C81.8116 17.3107 83.3695 16.8525 84.9776 16.8016C87.7917 16.8016 88.244 18.3799 88.244 19.3982V19.6527C82.1634 19.6527 78.3442 21.7911 78.3442 26.1188C78.3442 28.7663 80.304 31.2611 83.7212 31.2611C85.7816 31.2611 87.5405 30.4465 88.5958 29.0718H88.6963C88.6963 29.0718 89.3998 32.0248 93.219 30.9047C93.018 29.6828 92.9175 28.359 92.9175 26.8316V20.7219H92.8673ZM0 8.24804L4.62326 27.3916C5.37705 30.4974 6.68363 31.6684 10.5028 30.9047L12.9652 20.7219C13.5683 18.1762 14.0205 16.3943 14.4226 13.7976H14.4728C14.7743 16.3943 15.1764 18.1762 15.6789 20.7219L17.1865 27.799C17.7393 30.2428 19.1463 31.7702 22.9153 30.9047L28.7949 8.29895H24.0209L22.0107 18.0744C21.458 20.9256 20.9554 23.1658 20.6037 25.7624C20.2519 23.1658 19.7996 21.0274 19.2468 18.2781L17.1865 8.29895H12.2114L9.95006 18.0235C9.34703 20.9765 8.74399 23.3694 8.34197 25.8642H8.29172C7.8897 23.5222 7.38717 20.5183 6.83439 17.6671L5.02528 8.24804H0ZM37.5389 24.795C37.5389 25.1005 37.5389 25.4569 37.4384 25.7115C36.9861 27.0352 35.78 27.9008 34.3729 27.9008C33.1166 27.9008 32.1618 27.188 32.1618 25.6606C32.1618 23.3185 34.6745 22.7076 37.5891 22.7076V24.795H37.5389ZM42.1119 20.7219C42.1119 16.9034 40.5038 13.4922 35.0262 13.4922C32.2121 13.4922 29.9507 14.3068 28.7446 15.0196L29.6492 18.1253C31.0563 17.3107 32.6141 16.8525 34.2222 16.8016C37.0363 16.8016 37.4886 18.3799 37.4886 19.3982V19.6527C31.408 19.6527 27.5888 21.7911 27.5888 26.1188C27.5888 28.7663 29.5487 31.2611 32.9659 31.2611C35.0262 31.2611 36.7851 30.4465 37.8404 29.0718H37.9409C37.9409 29.0718 38.6444 32.0248 42.4637 30.9047C42.2626 29.6828 42.1621 28.359 42.1621 26.8316V20.7219H42.1119ZM49.097 26.0679V8.24804H44.5743V30.8538H49.097V26.0679ZM106.787 8.29895V24.9478C106.787 27.2389 107.189 28.8681 108.144 29.8355C108.948 30.701 110.255 31.2611 111.813 31.2611C113.169 31.2611 114.476 31.0065 115.079 30.752L115.029 27.1371C114.576 27.2898 114.024 27.3407 113.32 27.3407C111.762 27.3407 111.26 26.3734 111.26 24.2859V17.9726H115.23V13.6449H111.26V8.24804L106.787 8.29895ZM95.0784 13.8995V30.9047H99.7519V22.1984C99.7519 21.7402 99.8021 21.3329 99.8524 20.9256C100.204 19.0927 101.561 17.9217 103.571 17.9217C104.124 17.9217 104.476 17.9726 104.928 18.0235V13.5431C104.576 13.4922 104.224 13.4412 103.923 13.4412C102.164 13.4412 100.204 14.5614 99.3499 17.0561H99.2494V13.8486L95.0784 13.8995ZM51.7604 13.8995V30.9047H56.2832V20.9256C56.2832 20.4674 56.3334 19.9582 56.4842 19.5509C56.836 18.5326 57.7908 17.3616 59.2481 17.3616C61.1075 17.3616 61.9618 18.9399 61.9618 21.1802V30.8538H66.5348V20.7728C66.5348 20.3146 66.585 19.7546 66.7358 19.3982C67.0875 18.1762 68.2434 17.3107 69.4997 17.3107C71.359 17.3107 72.2636 18.8381 72.2636 21.5365V30.8538H76.8366V20.8747C76.8366 15.6305 74.1732 13.4922 71.2083 13.4922C69.8514 13.4922 68.8464 13.8486 67.8916 14.4086C67.0875 14.9178 66.384 15.6305 65.781 16.547H65.7307C64.9769 14.6632 63.1176 13.4412 61.1075 13.4922C59.0973 13.3903 57.1877 14.4086 56.2329 16.1906H56.1827V13.8995H51.7604Z" fill="white"/>
<path fill-rule="evenodd" clip-rule="evenodd" d="M139.703 13.1358C140.607 13.1358 141.361 12.6266 141.462 12.0666L142.316 1.8329C142.316 0.814621 141.16 0 139.703 0C138.246 0 137.09 0.814621 137.09 1.8329L137.994 12.0666C138.045 12.6775 138.798 13.1358 139.703 13.1358ZM134.225 16.3433C134.678 15.5287 134.627 14.6632 134.175 14.2559L125.883 8.40078C125.029 7.89165 123.723 8.50261 123.019 9.77546C122.265 11.0483 122.416 12.5248 123.27 12.983L132.467 17.3107C133.019 17.5144 133.823 17.107 134.225 16.3433ZM145.13 16.2924C145.582 17.107 146.336 17.5144 146.939 17.2598L156.085 12.9321C156.94 12.423 157.09 10.9974 156.337 9.72454C155.583 8.4517 154.326 7.84073 153.472 8.34987L145.18 14.2559C144.728 14.6632 144.678 15.5287 145.13 16.2924ZM139.703 25.8642C140.607 25.8642 141.361 26.3734 141.462 26.9334L142.316 37.1671C142.316 38.1854 141.16 39 139.703 39C138.246 39 137.09 38.1854 137.09 37.1671L137.994 26.9334C138.045 26.3225 138.798 25.8642 139.703 25.8642ZM145.13 22.7076C145.582 21.893 146.336 21.4856 146.939 21.6893L156.085 26.017C156.94 26.5261 157.09 27.9517 156.337 29.2245C155.583 30.4974 154.326 31.1084 153.472 30.5992L145.18 24.7441C144.728 24.3877 144.678 23.4713 145.13 22.7076ZM134.225 22.7076C134.678 23.4713 134.627 24.3877 134.175 24.795L125.883 30.6501C125.029 31.1593 123.723 30.5483 123.019 29.2755C122.265 28.0026 122.416 26.577 123.27 26.0679L132.467 21.7402C133.019 21.4856 133.823 21.893 134.225 22.7076ZM158.045 29.7337H158.146C158.246 29.7337 158.347 29.6828 158.347 29.6319C158.347 29.53 158.296 29.53 158.196 29.53H158.095V29.7337H158.045ZM158.045 30.1919H157.844V29.3773H158.146C158.296 29.3773 158.347 29.3773 158.447 29.4282C158.497 29.4791 158.548 29.53 158.548 29.5809C158.548 29.6828 158.497 29.7337 158.397 29.7846C158.497 29.8355 158.548 29.8864 158.548 29.9883C158.548 30.141 158.598 30.141 158.598 30.1919H158.397C158.347 30.141 158.347 30.0901 158.347 29.9883C158.347 29.8864 158.296 29.8864 158.196 29.8864H158.095L158.045 30.1919ZM158.146 29.1227C157.794 29.1227 157.543 29.4282 157.543 29.7846C157.543 30.141 157.794 30.4465 158.146 30.4465C158.497 30.4465 158.749 30.141 158.749 29.7846C158.799 29.4282 158.497 29.1227 158.146 29.1227ZM158.146 28.97C158.598 28.97 158.95 29.3264 158.95 29.7846C158.95 30.2428 158.598 30.5992 158.146 30.5992C157.693 30.5992 157.291 30.2428 157.291 29.7846C157.342 29.3264 157.693 28.97 158.146 28.97Z" fill="white"/>
</g>
<defs>
<clipPath id="clip0_13_229">
<rect width="159" height="39" fill="white"/>
</clipPath>
</defs>
</svg>
